<svg id="Group_1965" data-name="Group 1965" xmlns="http://www.w3.org/2000/svg" xmlns:xlink="http://www.w3.org/1999/xlink" width="25.555" height="22.452" viewBox="0 0 25.555 22.452">
  <defs>
    <clipPath id="clip-path">
      <rect id="Rectangle_81" data-name="Rectangle 81" width="25.555" height="22.452" fill="#fff"/>
    </clipPath>
  </defs>
  <g id="Group_1743" data-name="Group 1743" clip-path="url(#clip-path)">
    <path id="Path_6898" data-name="Path 6898" d="M14.633,5.967a7.239,7.239,0,0,1,7.7-5.92,3.564,3.564,0,0,1,3.219,3.632A12.166,12.166,0,0,1,24.507,8.6a27.866,27.866,0,0,1-5.774,8.752,31.1,31.1,0,0,1-4.911,4.367,3.173,3.173,0,0,1-4.373-.312A5.9,5.9,0,0,1,7.863,19C6.825,16.087,6,13.1,5.048,10.159c-.34-1.05-.66-2.107-1.1-3.121-.273-.626-.583-.76-1.239-.572a4.73,4.73,0,0,0-1.51.777c-.252.187-.38.2-.59-.076C-.211,6.09-.227,6.1.708,5.119A21.24,21.24,0,0,1,5.966.8a6.07,6.07,0,0,1,1.4-.541A2.2,2.2,0,0,1,9.98,1.341a10.334,10.334,0,0,1,1.2,3.755A48.63,48.63,0,0,0,12.9,12.57a5.571,5.571,0,0,0,.5,1.146c.352.577.638.633,1.173.206a6,6,0,0,0,1.1-1.232,24.124,24.124,0,0,0,2.061-3.443,3.777,3.777,0,0,0,.41-1.992A1.771,1.771,0,0,0,15.738,5.55c-.368.1-.717.269-1.105.417" transform="translate(0 0)" fill="#fff"/>
  </g>
</svg>
