<svg id="Group_1963" data-name="Group 1963" xmlns="http://www.w3.org/2000/svg" width="24" height="24.004" viewBox="0 0 24 24.004">
  <path id="Path_2423" data-name="Path 2423" d="M129.94,273.54c0-1.484-.005-2.968,0-4.452a7.5,7.5,0,0,1,7.522-7.53q4.474-.015,8.95,0a7.493,7.493,0,0,1,7.518,7.533q.014,4.451,0,8.9a7.493,7.493,0,0,1-7.545,7.553q-4.451.013-8.9,0a7.5,7.5,0,0,1-7.543-7.557C129.936,276.507,129.94,275.023,129.94,273.54Zm2.247.013c0,1.453,0,2.905,0,4.358a5.257,5.257,0,0,0,5.38,5.39q4.381.009,8.762,0a5.252,5.252,0,0,0,5.355-5.367q.01-4.381,0-8.762a5.253,5.253,0,0,0-5.356-5.367q-4.4-.011-8.809,0a5.252,5.252,0,0,0-5.332,5.343C132.182,270.617,132.187,272.085,132.187,273.553Z" transform="translate(-129.938 -261.551)" fill="#fff"/>
  <path id="Path_2424" data-name="Path 2424" d="M147.653,274.449a4.843,4.843,0,1,1-4.825,4.842A4.849,4.849,0,0,1,147.653,274.449Zm.014,7.87a3.028,3.028,0,1,0-3.024-3.033A3.042,3.042,0,0,0,147.666,282.319Z" transform="translate(-135.672 -267.289)" fill="#fff"/>
  <path id="Path_2425" data-name="Path 2425" d="M169.074,271.8a1.176,1.176,0,0,1,1.241,1.228,1.256,1.256,0,0,1-1.247,1.254,1.329,1.329,0,0,1-1.235-1.223A1.257,1.257,0,0,1,169.074,271.8Z" transform="translate(-151.151 -266.963)" fill="#fff"/>
</svg>
