<svg id="Group_1964" data-name="Group 1964" xmlns="http://www.w3.org/2000/svg" width="12.938" height="24" viewBox="0 0 12.938 24">
  <path id="Path_2426" data-name="Path 2426" d="M249.593,395.729q0-2.172,0-4.343c0-.743,0-.743-.772-.744-.724,0-1.448-.01-2.171,0-.443.007-.642-.179-.638-.629q.016-1.819,0-3.639c0-.424.2-.607.607-.6.254,0,.509.011.763,0,.717-.041,1.649.309,2.092-.138.412-.416.1-1.342.117-2.043a12.109,12.109,0,0,1,.187-2.157,5.244,5.244,0,0,1,5.14-4.307c1.114-.027,2.23,0,3.345-.014.462-.006.69.17.686.652q-.016,1.643,0,3.287c.005.473-.2.671-.669.67-.762,0-1.526.006-2.287.048-1.02.056-1.272.323-1.293,1.325-.015.7.013,1.409-.013,2.112-.013.375.1.509.49.5.958-.027,1.917,0,2.875-.013.537-.008.79.2.781.763q-.029,1.731,0,3.462c.01.546-.238.722-.749.712-.958-.019-1.918.016-2.875-.015-.419-.013-.52.125-.518.528.016,2.973.009,5.947.008,8.921,0,.97-.068,1.039-1.026,1.041-1.1,0-2.192-.02-3.286.008-.595.015-.8-.25-.8-.806C249.6,398.781,249.593,397.255,249.593,395.729Z" transform="translate(-246.01 -377.113)" fill="#fff"/>
</svg>
